<svg width="24" height="25" viewBox="0 0 24 25" fill="none" xmlns="http://www.w3.org/2000/svg">
<g opacity="0.4">
<mask id="mask0_271_30681" style="mask-type:alpha" maskUnits="userSpaceOnUse" x="2" y="2" width="20" height="21">
<path fill-rule="evenodd" clip-rule="evenodd" d="M12 2.70508C6.48 2.70508 2 7.18508 2 12.7051C2 18.2251 6.48 22.7051 12 22.7051C17.52 22.7051 22 18.2251 22 12.7051C22 7.18508 17.52 2.70508 12 2.70508ZM12 5.70508C13.66 5.70508 15 7.04508 15 8.70508C15 10.3651 13.66 11.7051 12 11.7051C10.34 11.7051 9 10.3651 9 8.70508C9 7.04508 10.34 5.70508 12 5.70508ZM6 16.6851C7.29 18.6251 9.5 19.9051 12 19.9051C14.5 19.9051 16.71 18.6251 18 16.6851C17.97 14.6951 13.99 13.6051 12 13.6051C10 13.6051 6.03 14.6951 6 16.6851Z" fill="black"/>
</mask>
<g mask="url(#mask0_271_30681)">
<rect y="0.705078" width="24" height="24" fill="white"/>
</g>
</g>
</svg>
