<svg width="21" height="22" viewBox="0 0 21 22" fill="none" xmlns="http://www.w3.org/2000/svg">
<mask id="mask0_876_3022" style="mask-type:alpha" maskUnits="userSpaceOnUse" x="4" y="3" width="13" height="16">
<path fill-rule="evenodd" clip-rule="evenodd" d="M13.5625 4H15.75C16.2312 4 16.625 4.39375 16.625 4.875C16.625 5.35625 16.2312 5.75 15.75 5.75H5.25C4.76875 5.75 4.375 5.35625 4.375 4.875C4.375 4.39375 4.76875 4 5.25 4H7.4375L8.05875 3.37875C8.21625 3.22125 8.44375 3.125 8.67125 3.125H12.3288C12.5563 3.125 12.7837 3.22125 12.9412 3.37875L13.5625 4ZM7 18.875C6.0375 18.875 5.25 18.0875 5.25 17.125V8.375C5.25 7.4125 6.0375 6.625 7 6.625H14C14.9625 6.625 15.75 7.4125 15.75 8.375V17.125C15.75 18.0875 14.9625 18.875 14 18.875H7Z" fill="black"/>
</mask>
<g mask="url(#mask0_876_3022)">
<rect y="0.5" width="21" height="21" fill="#333333"/>
</g>
</svg>
