<svg width="16" height="17" viewBox="0 0 16 17" fill="none" xmlns="http://www.w3.org/2000/svg">
<mask id="mask0_271_29778" style="mask-type:alpha" maskUnits="userSpaceOnUse" x="4" y="2" width="8" height="13">
<path d="M8.19935 7.76667C6.68602 7.37333 6.19935 6.96667 6.19935 6.33333C6.19935 5.60667 6.87268 5.1 7.99935 5.1C8.94602 5.1 9.41935 5.46 9.59268 6.03333C9.67268 6.3 9.89268 6.5 10.1727 6.5H10.3727C10.8127 6.5 11.126 6.06667 10.9727 5.65333C10.6927 4.86667 10.0393 4.21333 8.99935 3.96V3.5C8.99935 2.94667 8.55268 2.5 7.99935 2.5C7.44602 2.5 6.99935 2.94667 6.99935 3.5V3.94C5.70602 4.22 4.66602 5.06 4.66602 6.34667C4.66602 7.88667 5.93935 8.65333 7.79935 9.1C9.46602 9.5 9.79935 10.0867 9.79935 10.7067C9.79935 11.1667 9.47268 11.9 7.99935 11.9C6.89935 11.9 6.33268 11.5067 6.11268 10.9467C6.01268 10.6867 5.78602 10.5 5.51268 10.5H5.32602C4.87935 10.5 4.56602 10.9533 4.73268 11.3667C5.11268 12.2933 5.99935 12.84 6.99935 13.0533V13.5C6.99935 14.0533 7.44602 14.5 7.99935 14.5C8.55268 14.5 8.99935 14.0533 8.99935 13.5V13.0667C10.2993 12.82 11.3327 12.0667 11.3327 10.7C11.3327 8.80667 9.71268 8.16 8.19935 7.76667Z" fill="black"/>
</mask>
<g mask="url(#mask0_271_29778)">
<rect y="0.5" width="16" height="16" fill="#219653"/>
</g>
</svg>
