<svg xmlns="http://www.w3.org/2000/svg" width="28" height="29" viewBox="0 0 28 29" fill="none">
  <path d="M23.3337 14.8198C23.3337 15.2628 23.0046 15.6289 22.5775 15.6868L22.4587 15.6948L4.95874 15.6948C4.47549 15.6948 4.08374 15.3031 4.08374 14.8198C4.08374 14.3768 4.41292 14.0108 4.84001 13.9528L4.95874 13.9448L22.4587 13.9448C22.942 13.9448 23.3337 14.3366 23.3337 14.8198Z" fill="#212121"/>
  <path d="M12.634 21.2291C12.9764 21.5701 12.9776 22.1241 12.6367 22.4665C12.3267 22.7779 11.8406 22.8071 11.4975 22.5537L11.3992 22.4692L4.34088 15.4412C4.02864 15.1303 4.00024 14.6425 4.25568 14.2994L4.34083 14.2012L11.3992 7.17199C11.7416 6.83099 12.2956 6.83214 12.6366 7.17456C12.9466 7.48584 12.9738 7.97201 12.719 8.31403L12.634 8.41199L6.19867 14.8215L12.634 21.2291Z" fill="#212121"/>
</svg>