<svg width="16" height="17" viewBox="0 0 16 17" fill="none" xmlns="http://www.w3.org/2000/svg">
<mask id="mask0_271_29773" style="mask-type:alpha" maskUnits="userSpaceOnUse" x="1" y="1" width="14" height="15">
<path fill-rule="evenodd" clip-rule="evenodd" d="M12.6654 2.50033H13.332C14.0654 2.50033 14.6654 3.10033 14.6654 3.83366V14.5003C14.6654 15.2337 14.0654 15.8337 13.332 15.8337H2.66536C1.93203 15.8337 1.33203 15.2337 1.33203 14.5003V3.83366C1.33203 3.10033 1.93203 2.50033 2.66536 2.50033H3.33203V1.83366C3.33203 1.46699 3.63203 1.16699 3.9987 1.16699C4.36536 1.16699 4.66536 1.46699 4.66536 1.83366V2.50033H11.332V1.83366C11.332 1.46699 11.632 1.16699 11.9987 1.16699C12.3654 1.16699 12.6654 1.46699 12.6654 1.83366V2.50033ZM3.33203 14.5003H12.6654C13.032 14.5003 13.332 14.2003 13.332 13.8337V5.83366H2.66536V13.8337C2.66536 14.2003 2.96536 14.5003 3.33203 14.5003Z" fill="black"/>
</mask>
<g mask="url(#mask0_271_29773)">
<rect y="0.5" width="16" height="16" fill="#F0B040"/>
</g>
</svg>
