<svg width="17" height="17" viewBox="0 0 17 17" fill="none" xmlns="http://www.w3.org/2000/svg">
<mask id="mask0_375_8606" style="mask-type:alpha" maskUnits="userSpaceOnUse" x="3" y="2" width="11" height="13">
<path fill-rule="evenodd" clip-rule="evenodd" d="M10.979 2.83333H12.7498C13.1394 2.83333 13.4582 3.15208 13.4582 3.54167C13.4582 3.93125 13.1394 4.25 12.7498 4.25H4.24984C3.86025 4.25 3.5415 3.93125 3.5415 3.54167C3.5415 3.15208 3.86025 2.83333 4.24984 2.83333H6.02067L6.52359 2.33042C6.65109 2.20292 6.83525 2.125 7.01942 2.125H9.98025C10.1644 2.125 10.3486 2.20292 10.4761 2.33042L10.979 2.83333ZM5.6665 14.875C4.88734 14.875 4.24984 14.2375 4.24984 13.4583V6.375C4.24984 5.59583 4.88734 4.95833 5.6665 4.95833H11.3332C12.1123 4.95833 12.7498 5.59583 12.7498 6.375V13.4583C12.7498 14.2375 12.1123 14.875 11.3332 14.875H5.6665Z" fill="black"/>
</mask>
<g mask="url(#mask0_375_8606)">
<rect width="17" height="17" fill="#858C94"/>
</g>
</svg>
