<svg xmlns="http://www.w3.org/2000/svg" width="42" height="41" viewBox="0 0 42 41"
    fill="none">
    <path
        d="M21.9225 18.2277L21 18.689L20.0775 18.2277L6.41083 11.3944L20.0775 3.7069C20.3372 3.55696 20.6318 3.47803 20.9317 3.47803C21.2315 3.47803 21.5261 3.55696 21.7858 3.7069L35.4525 11.3944L28.6192 14.8111C28.5764 14.7656 28.5238 14.7306 28.4654 14.7086L21.6321 11.2919C21.2339 11.1261 20.7877 11.117 20.3831 11.2666C19.9785 11.4161 19.6455 11.7132 19.4508 12.0981C19.2562 12.4831 19.2144 12.9274 19.3338 13.3419C19.4532 13.7564 19.725 14.1103 20.0946 14.3327L24.8267 16.7073L21.9225 18.2277ZM5.625 12.9148V28.2898C5.62552 28.5925 5.70647 28.8897 5.85956 29.1508C6.01264 29.412 6.23237 29.6277 6.49625 29.7761L20.1629 37.4465V20.3632L19.3088 19.9361L5.625 12.9148ZM36.375 12.9148L29.5417 16.3315V23.9165C29.5417 24.3696 29.3617 24.8041 29.0413 25.1245C28.7209 25.4448 28.2864 25.6248 27.8333 25.6248C27.3803 25.6248 26.9457 25.4448 26.6254 25.1245C26.305 24.8041 26.125 24.3696 26.125 23.9165V18.0398L21.8542 20.1752V37.2586L35.5208 29.5882C35.7693 29.4451 35.9778 29.2418 36.1271 28.997C36.2764 28.7522 36.3616 28.4737 36.375 28.1873V12.8123C36.384 12.8279 36.3887 12.8456 36.3887 12.8636C36.3887 12.8816 36.384 12.8992 36.375 12.9148Z"
        fill="white" />
</svg>