<svg width="17" height="18" viewBox="0 0 17 18" fill="none" xmlns="http://www.w3.org/2000/svg">
<mask id="mask0_876_9427" style="mask-type:alpha" maskUnits="userSpaceOnUse" x="2" y="2" width="13" height="14">
<path fill-rule="evenodd" clip-rule="evenodd" d="M14.6696 4.4887C14.9458 4.76495 14.9458 5.2112 14.6696 5.48745L13.3733 6.7837L10.7171 4.12745L12.0133 2.8312C12.1457 2.69856 12.3253 2.62402 12.5127 2.62402C12.7001 2.62402 12.8797 2.69856 13.0121 2.8312L14.6696 4.4887ZM2.125 15.0216V12.8683C2.125 12.7691 2.16042 12.6841 2.23125 12.6133L9.95917 4.88537L12.6154 7.54162L4.88042 15.2695C4.81667 15.3404 4.72458 15.3758 4.6325 15.3758H2.47917C2.28083 15.3758 2.125 15.22 2.125 15.0216Z" fill="black"/>
</mask>
<g mask="url(#mask0_876_9427)">
<rect y="0.5" width="17" height="17" fill="#858C94"/>
</g>
</svg>
