<svg width="25" height="25" viewBox="0 0 25 25" fill="none" xmlns="http://www.w3.org/2000/svg">
<g opacity="1">
<mask id="mask0_3130_10564" style="mask-type:alpha" maskUnits="userSpaceOnUse" x="2" y="2" width="21" height="21">
<path fill-rule="evenodd" clip-rule="evenodd" d="M12.5 2.5C6.98 2.5 2.5 6.98 2.5 12.5C2.5 18.02 6.98 22.5 12.5 22.5C18.02 22.5 22.5 18.02 22.5 12.5C22.5 6.98 18.02 2.5 12.5 2.5ZM11.5 19.5V17.5H13.5V19.5H11.5ZM14.67 12.67L15.57 11.75C16.59 10.73 16.94 8.98 15.76 7.35C14.86 6.1 13.41 5.31 11.89 5.55C10.34 5.79 9.09 6.91 8.66 8.38C8.5 8.94 8.9 9.5 9.48 9.5H9.78C10.17 9.5 10.48 9.22 10.6 8.85C10.93 7.9 11.96 7.27 13.07 7.58C13.77 7.78 14.33 8.39 14.46 9.11C14.59 9.81 14.37 10.47 13.91 10.91L12.67 12.17C12.25 12.59 11.92 13.11 11.72 13.69C11.58 14.1 11.5 14.54 11.5 15V15.5H13.5C13.5 15.04 13.55 14.68 13.63 14.36C13.81 13.64 14.17 13.18 14.67 12.67Z" fill="black"/>
</mask>
<g mask="url(#mask0_3130_10564)">
<rect x="0.5" y="0.5" width="24" height="24" fill="#F0B040"/>
</g>
</g>
</svg>
