<svg xmlns="http://www.w3.org/2000/svg" width="19" height="20" viewBox="0 0 19 20" fill="none">
<path d="M9.49968 2.0835C7.93391 2.0835 6.4033 2.5478 5.10141 3.4177C3.79952 4.28759 2.78483 5.524 2.18563 6.97059C1.58644 8.41717 1.42966 10.0089 1.73513 11.5446C2.04059 13.0803 2.79458 14.4909 3.90175 15.5981C5.00892 16.7053 6.41953 17.4592 7.95521 17.7647C9.4909 18.0702 11.0827 17.9134 12.5293 17.3142C13.9758 16.715 15.2123 15.7003 16.0821 14.3984C16.952 13.0965 17.4163 11.5659 17.4163 10.0002C17.4163 8.96053 17.2116 7.93108 16.8137 6.97059C16.4159 6.01009 15.8327 5.13736 15.0976 4.40223C14.3625 3.6671 13.4898 3.08397 12.5293 2.68612C11.5688 2.28827 10.5393 2.0835 9.49968 2.0835ZM3.95801 13.0085C4.47531 13.143 5.00691 13.2147 5.54134 13.2222C6.43561 13.2468 7.31184 12.9678 8.02718 12.4306C9.38093 11.3697 9.38093 10.0081 9.38093 8.91558C9.32089 8.28326 9.42165 7.64603 9.67385 7.06308C9.90296 6.7511 10.2082 6.50306 10.5605 6.34266C10.8122 6.19557 11.0554 6.03434 11.2888 5.85975C11.7808 5.47114 12.1629 4.96085 12.3972 4.37933C13.511 4.94922 14.4311 5.83625 15.0413 6.9285C13.9093 7.08683 12.3022 7.45891 11.9855 8.93141C11.914 9.28323 11.8769 9.64116 11.8747 10.0002C11.9003 10.4014 11.8212 10.8025 11.6451 11.1639L11.5659 11.2985C11.0513 12.1535 10.4734 13.1272 11.2572 14.4652C11.3522 14.6314 11.4551 14.7897 11.558 14.9481C11.7687 15.1915 11.9108 15.4866 11.9697 15.8031C11.1911 16.1463 10.3505 16.3268 9.49968 16.3335C8.36255 16.3278 7.24792 16.0161 6.27282 15.431C5.29773 14.846 4.49814 14.0092 3.95801 13.0085Z" fill="#333333"/>
</svg>