<svg width="16" height="16" viewBox="0 0 16 16" fill="none" xmlns="http://www.w3.org/2000/svg">
<mask id="mask0_2071_8323" style="mask-type:alpha" maskUnits="userSpaceOnUse" x="3" y="1" width="10" height="14">
<path fill-rule="evenodd" clip-rule="evenodd" d="M3.33398 6.17643C3.33398 3.59643 5.42065 1.50977 8.00065 1.50977C10.5807 1.50977 12.6673 3.59643 12.6673 6.17643C12.6673 8.95643 9.72065 12.7898 8.51398 14.2498C8.24732 14.5698 7.76065 14.5698 7.49398 14.2498C6.28065 12.7898 3.33398 8.95643 3.33398 6.17643ZM6.33398 6.17643C6.33398 7.09643 7.08065 7.8431 8.00065 7.8431C8.92065 7.8431 9.66732 7.09643 9.66732 6.17643C9.66732 5.25643 8.92065 4.50977 8.00065 4.50977C7.08065 4.50977 6.33398 5.25643 6.33398 6.17643Z" fill="black"/>
</mask>
<g mask="url(#mask0_2071_8323)">
<rect width="16" height="16" fill="#F0B040"/>
</g>
</svg>
