<svg width="16" height="16" viewBox="0 0 16 16" fill="none" xmlns="http://www.w3.org/2000/svg">
<g opacity="0.4">
<mask id="mask0_2071_8331" style="mask-type:alpha" maskUnits="userSpaceOnUse" x="2" y="2" width="12" height="12">
<path fill-rule="evenodd" clip-rule="evenodd" d="M6.43724 2.15349L9.77057 3.32016C9.92391 3.37349 10.0839 3.36682 10.2306 3.31349L12.1839 2.55349C13.0572 2.21349 13.9972 2.85349 13.9972 3.79349V11.6935C13.9972 12.2668 13.6306 12.7802 13.0906 12.9602L10.4306 13.8535C10.1506 13.9468 9.84391 13.9468 9.56391 13.8468L6.23057 12.6802C6.08391 12.6268 5.91724 12.6268 5.77057 12.6868L3.81724 13.4468C2.94391 13.7868 2.00391 13.1468 2.00391 12.2068V4.30682C2.00391 3.73349 2.37057 3.22682 2.91057 3.04016L5.57057 2.14682C5.85057 2.05349 6.15724 2.05349 6.43724 2.15349ZM6.0039 11.1868L10.0039 12.5935V4.81348L6.0039 3.40681V11.1868Z" fill="black"/>
</mask>
<g mask="url(#mask0_2071_8331)">
<rect width="16" height="16" fill="white"/>
</g>
</g>
</svg>
