<svg width="24" height="25" viewBox="0 0 24 25" fill="none" xmlns="http://www.w3.org/2000/svg">
<g opacity="0.4">
<mask id="mask0_271_30668" style="mask-type:alpha" maskUnits="userSpaceOnUse" x="2" y="2" width="20" height="21">
<path fill-rule="evenodd" clip-rule="evenodd" d="M4 2.70508H20C21.1 2.70508 22 3.60508 22 4.70508V16.7051C22 17.8051 21.1 18.7051 20 18.7051H6L2 22.7051L2.01 4.70508C2.01 3.60508 2.9 2.70508 4 2.70508ZM17 9.70508H7C6.45 9.70508 6 10.1551 6 10.7051C6 11.2551 6.45 11.7051 7 11.7051H17C17.55 11.7051 18 11.2551 18 10.7051C18 10.1551 17.55 9.70508 17 9.70508ZM13 14.7051H7C6.45 14.7051 6 14.2551 6 13.7051C6 13.1551 6.45 12.7051 7 12.7051H13C13.55 12.7051 14 13.1551 14 13.7051C14 14.2551 13.55 14.7051 13 14.7051ZM7 8.70508H17C17.55 8.70508 18 8.25508 18 7.70508C18 7.15508 17.55 6.70508 17 6.70508H7C6.45 6.70508 6 7.15508 6 7.70508C6 8.25508 6.45 8.70508 7 8.70508Z" fill="black"/>
</mask>
<g mask="url(#mask0_271_30668)">
<rect y="0.705078" width="24" height="24" fill="white"/>
</g>
</g>
</svg>
