<svg width="25" height="25" viewBox="0 0 25 25" fill="none" xmlns="http://www.w3.org/2000/svg">
<g opacity="1">
<mask id="mask0_1724_2795" style="mask-type:alpha" maskUnits="userSpaceOnUse" x="2" y="2" width="21" height="21">
<path fill-rule="evenodd" clip-rule="evenodd" d="M2.5 12.5C2.5 6.98 6.98 2.5 12.5 2.5C18.02 2.5 22.5 6.98 22.5 12.5C22.5 18.02 18.02 22.5 12.5 22.5C6.98 22.5 2.5 18.02 2.5 12.5ZM13.91 19.17V18.59C15.65 18.26 17.02 17.26 17.04 15.43C17.04 12.91 14.88 12.04 12.86 11.52C10.84 11 10.19 10.45 10.19 9.61C10.19 8.65 11.09 7.97 12.59 7.97C13.85 7.97 14.48 8.46 14.71 9.22C14.81 9.58 15.11 9.84 15.48 9.84H15.74C16.33 9.84 16.75 9.26 16.55 8.71C16.17 7.65 15.3 6.79 13.92 6.45V5.83C13.92 5.1 13.32 4.5 12.59 4.5H12.58C11.85 4.5 11.25 5.1 11.25 5.83V6.43C9.53 6.8 8.14 7.92 8.14 9.64C8.14 11.69 9.84 12.71 12.32 13.31C14.55 13.84 14.99 14.62 14.99 15.45C14.99 16.06 14.55 17.04 12.59 17.04C11.13 17.04 10.37 16.52 10.08 15.77C9.94 15.42 9.64 15.17 9.27 15.17H9.03C8.43 15.17 8 15.78 8.23 16.33C8.73 17.56 9.91 18.29 11.24 18.57V19.17C11.24 19.9 11.84 20.5 12.57 20.5H12.58C13.31 20.5 13.91 19.9 13.91 19.17Z" fill="black"/>
</mask>
<g mask="url(#mask0_1724_2795)">
<rect x="0.5" y="0.5" width="24" height="24" fill="#F0B040"/>
</g>
</g>
</svg>
