<svg width="24" height="25" viewBox="0 0 24 25" fill="none" xmlns="http://www.w3.org/2000/svg">
<mask id="mask0_625_1989" style="mask-type:alpha" maskUnits="userSpaceOnUse" x="4" y="2" width="16" height="21">
<path fill-rule="evenodd" clip-rule="evenodd" d="M18.0015 11.25V16.25L19.2915 17.54C19.9215 18.17 19.4715 19.25 18.5815 19.25H5.41152C4.52152 19.25 4.08152 18.17 4.71152 17.54L6.00152 16.25V11.25C6.00152 8.17 7.63152 5.61 10.5015 4.93V4.25C10.5015 3.42 11.1715 2.75 12.0015 2.75C12.8315 2.75 13.5015 3.42 13.5015 4.25V4.93C16.3615 5.61 18.0015 8.18 18.0015 11.25ZM14.0015 20.25C14.0015 21.35 13.1015 22.25 12.0015 22.25C10.8915 22.25 10.0015 21.35 10.0015 20.25H14.0015Z" fill="black"/>
</mask>
<g mask="url(#mask0_625_1989)">
<rect y="0.5" width="24" height="24" fill="#858C94"/>
</g>
</svg>
