<svg width="57" height="58" viewBox="0 0 57 58" fill="none" xmlns="http://www.w3.org/2000/svg">
<path d="M55.3448 4.61501C53.8113 4.61501 52.5638 3.62494 52.5638 2.40809C52.5638 1.49394 51.8227 0.75293 50.9086 0.75293H33.1858C32.2716 0.75293 31.5306 1.49394 31.5306 2.40809C31.5306 3.62483 30.2833 4.61479 28.75 4.61501C27.2167 4.61479 25.9692 3.62483 25.9692 2.40809C25.9692 1.49394 25.2282 0.75293 24.3141 0.75293H6.59152C5.67736 0.75293 4.93635 1.49394 4.93635 2.40809C4.93635 3.62494 3.68872 4.61501 2.15527 4.61501C1.24101 4.61501 0.5 5.35602 0.5 6.27018V51.7299C0.5 52.6441 1.24101 53.3851 2.15516 53.3851C3.68872 53.3851 4.93624 54.3752 4.93624 55.592C4.93624 56.5062 5.67725 57.2472 6.59141 57.2472H24.3141C25.2282 57.2472 25.9692 56.5062 25.9692 55.592C25.9692 54.3753 27.2166 53.3853 28.75 53.3851C30.2832 53.3853 31.5306 54.3753 31.5306 55.592C31.5306 56.5062 32.2716 57.2472 33.1858 57.2472H50.9086C51.8227 57.2472 52.5638 56.5062 52.5638 55.592C52.5638 54.3752 53.8114 53.3851 55.3448 53.3851C56.259 53.3851 57 52.6441 57 51.7299V6.27018C57 5.35602 56.259 4.61501 55.3448 4.61501ZM22.9389 53.9369H7.96672C7.35261 52.1717 5.78341 50.7869 3.81033 50.2818V7.71843C5.78341 7.21335 7.3525 5.82855 7.96672 4.06337H22.9389C23.5529 5.82822 25.1218 7.2128 27.0943 7.71821V50.2821C25.1218 50.7873 23.5529 52.1719 22.9389 53.9369ZM53.6897 50.2817C51.7166 50.7868 50.1475 52.1716 49.5333 53.9368H34.561C33.947 52.1719 32.3782 50.7873 30.4057 50.2819V7.7181C32.3782 7.2128 33.947 5.82822 34.561 4.06326H49.5334C50.1475 5.82844 51.7167 7.21324 53.6898 7.71832L53.6897 50.2817Z" fill="#F0B040"/>
<path d="M21.1541 13.6621H9.75184C8.83769 13.6621 8.09668 14.4031 8.09668 15.3173C8.09668 16.2314 8.83769 16.9724 9.75184 16.9724H21.154C22.0682 16.9724 22.8092 16.2314 22.8092 15.3173C22.8092 14.4031 22.0682 13.6621 21.1541 13.6621Z" fill="#F0B040"/>
<path d="M21.1541 22.7842H9.75184C8.83769 22.7842 8.09668 23.5252 8.09668 24.4393C8.09668 25.3535 8.83769 26.0945 9.75184 26.0945H21.154C22.0682 26.0945 22.8092 25.3535 22.8092 24.4393C22.8093 23.5253 22.0682 22.7842 21.1541 22.7842Z" fill="#F0B040"/>
<path d="M21.1541 31.9058H9.75184C8.83769 31.9058 8.09668 32.6468 8.09668 33.5609C8.09668 34.4751 8.83769 35.2161 9.75184 35.2161H21.154C22.0682 35.2161 22.8092 34.4751 22.8092 33.5609C22.8093 32.6468 22.0682 31.9058 21.1541 31.9058Z" fill="#F0B040"/>
<path d="M21.1541 41.0278H9.75184C8.83769 41.0278 8.09668 41.7688 8.09668 42.683C8.09668 43.5971 8.83769 44.3382 9.75184 44.3382H21.154C22.0682 44.3382 22.8092 43.5971 22.8092 42.683C22.8093 41.7688 22.0682 41.0278 21.1541 41.0278Z" fill="#F0B040"/>
<path d="M47.7485 13.6621H36.3461C35.4319 13.6621 34.6909 14.4031 34.6909 15.3173V27.8597C34.6909 31.3468 37.1305 34.2728 40.3921 35.026V41.0275H36.3461C35.4319 41.0275 34.6909 41.7685 34.6909 42.6827C34.6909 43.5968 35.4319 44.3379 36.3461 44.3379H47.7483C48.6624 44.3379 49.4034 43.5968 49.4034 42.6827C49.4034 41.7685 48.6624 41.0275 47.7483 41.0275H43.7023V35.026C46.9639 34.2728 49.4035 31.3467 49.4035 27.8597V15.3173C49.4037 14.4031 48.6625 13.6621 47.7485 13.6621ZM46.0933 27.8597C46.0933 30.0907 44.2783 31.9058 42.0473 31.9058C39.8163 31.9058 38.0012 30.0907 38.0012 27.8597V16.9724H46.0932V27.8597H46.0933Z" fill="#F0B040"/>
</svg>
