<svg width="16" height="16" viewBox="0 0 16 16" fill="none" xmlns="http://www.w3.org/2000/svg">
<mask id="mask0_2071_8310" style="mask-type:alpha" maskUnits="userSpaceOnUse" x="2" y="2" width="12" height="12">
<path d="M12.8142 10.1789L11.1208 9.98554C10.7142 9.93887 10.3142 10.0789 10.0275 10.3655L8.80083 11.5922C6.91417 10.6322 5.3675 9.09221 4.4075 7.19887L5.64083 5.96554C5.9275 5.67887 6.0675 5.27887 6.02083 4.87221L5.8275 3.19221C5.7475 2.51887 5.18083 2.01221 4.50083 2.01221H3.3475C2.59417 2.01221 1.9675 2.63887 2.01417 3.39221C2.3675 9.08554 6.92083 13.6322 12.6075 13.9855C13.3608 14.0322 13.9875 13.4055 13.9875 12.6522V11.4989C13.9942 10.8255 13.4875 10.2589 12.8142 10.1789Z" fill="black"/>
</mask>
<g mask="url(#mask0_2071_8310)">
<rect width="16" height="16" fill="#F0B040"/>
</g>
</svg>
