<svg width="83" height="55" viewBox="0 0 83 55" fill="none" xmlns="http://www.w3.org/2000/svg">
<path d="M78.9667 19.7592H73.2734V10.6616C73.2734 7.53307 70.7282 4.98779 67.5996 4.98779H62.517C62.1224 2.24198 59.7553 0.124512 56.902 0.124512H52.6888C49.5602 0.124512 47.015 2.66979 47.015 5.79834V19.7592H35.985V5.79834C35.985 2.66979 33.4398 0.124512 30.3112 0.124512H26.098C23.2447 0.124512 20.8776 2.24198 20.483 4.98779H15.4004C12.2718 4.98779 9.72656 7.53307 9.72656 10.6616V19.7592H4.03328C1.8093 19.7592 0 21.5677 0 23.7909V31.209C0 33.4322 1.8093 35.2406 4.03328 35.2406H9.72656V44.3382C9.72656 47.4668 12.2718 50.0121 15.4004 50.0121H20.483C20.8776 52.7579 23.2447 54.8753 26.098 54.8753H30.3112C33.4398 54.8753 35.985 52.3301 35.985 49.2015V35.2406H47.015V49.2015C47.015 52.3301 49.5602 54.8753 52.6888 54.8753H56.902C59.7553 54.8753 62.1224 52.7579 62.517 50.0121H67.5996C70.7282 50.0121 73.2734 47.4668 73.2734 44.3382V35.2406H78.9667C81.1907 35.2406 83 33.4322 83 31.209V23.7909C83 21.5677 81.1907 19.7592 78.9667 19.7592ZM4.86328 30.3774V24.6225H9.72656V30.3774H4.86328ZM14.5898 44.3382C14.5898 43.3819 14.5898 10.9259 14.5898 10.6616C14.5898 10.2147 14.9535 9.85108 15.4004 9.85108H20.4242V45.1488H15.4004C14.9535 45.1488 14.5898 44.7852 14.5898 44.3382ZM31.1218 49.2015C31.1218 49.6484 30.7581 50.0121 30.3112 50.0121H26.098C25.6511 50.0121 25.2874 49.6484 25.2874 49.2015C25.2874 48.086 25.2874 6.93456 25.2874 5.79834C25.2874 5.3514 25.6511 4.98779 26.098 4.98779H30.3112C30.7581 4.98779 31.1218 5.3514 31.1218 5.79834V49.2015ZM35.985 30.3774V24.6225H47.015V30.3774H35.985ZM57.7126 49.2015C57.7126 49.6484 57.3489 50.0121 56.902 50.0121H52.6888C52.2419 50.0121 51.8782 49.6484 51.8782 49.2015C51.8782 48.0679 51.8782 6.6204 51.8782 5.79834C51.8782 5.3514 52.2419 4.98779 52.6888 4.98779H56.902C57.3489 4.98779 57.7126 5.3514 57.7126 5.79834V49.2015ZM68.4102 44.3382C68.4102 44.7852 68.0465 45.1488 67.5996 45.1488H62.5758V9.85108H67.5996C68.0465 9.85108 68.4102 10.2147 68.4102 10.6616V44.3382ZM78.1367 30.3774H73.2734V24.6225H78.1367V30.3774Z" fill="#F0B040"/>
</svg>
