<svg width="61" height="83" viewBox="0 0 61 83" fill="none" xmlns="http://www.w3.org/2000/svg">
<path d="M41.3223 49.1519C42.1508 48.5581 42.9374 47.8933 43.6729 47.1583C47.1905 43.6389 49.1277 38.9609 49.1277 33.9863C49.1277 33.5436 49.1277 9.73309 49.1277 9.30544C49.1277 6.31906 47.2685 3.61103 44.4902 2.53365C44.4581 2.52019 44.4259 2.50739 44.3931 2.49523C35.4338 -0.831743 25.5658 -0.831743 16.6065 2.49523C16.5737 2.50722 16.5415 2.52019 16.5095 2.53365C13.7311 3.61086 11.8719 6.31874 11.8719 9.30544V33.9863C11.8719 40.2304 14.9602 45.7664 19.6895 49.148C8.52109 52.8394 0.438965 63.3754 0.438965 75.7651V80.5626C0.438965 81.9087 1.53028 82.9999 2.87628 82.9999H58.1232C59.4693 82.9999 60.5605 81.9086 60.5605 80.5626V75.7651C60.5608 63.3798 52.4845 52.8469 41.3223 49.1519ZM16.7467 9.30528C16.7467 8.31171 17.3723 7.41217 18.3033 7.06655C18.3294 7.05682 18.355 7.04694 18.3806 7.0364C26.1998 4.15377 34.8002 4.15344 42.6193 7.0364C42.645 7.04694 42.6706 7.05682 42.6967 7.06655C43.6277 7.41217 44.2532 8.31171 44.2532 9.30528V18.6535H16.7467V9.30528ZM16.7467 33.9861V23.5281H44.2531V33.9861C44.2531 37.6592 42.8226 41.1134 40.226 43.7114C37.6269 46.3088 34.1726 47.7393 30.4999 47.7393C22.9162 47.7393 16.7467 41.5697 16.7467 33.9861ZM55.686 78.1251H5.31376V75.7649C5.31376 62.9995 15.6993 52.6139 28.4648 52.6139H32.535C45.3005 52.6139 55.686 62.9995 55.686 75.7649V78.1251Z" fill="#F0B040"/>
<path d="M32.45 67.814H28.5501C27.2039 67.814 26.1128 68.9053 26.1128 70.2513C26.1128 71.5973 27.2041 72.6886 28.5501 72.6886H32.45C33.7961 72.6886 34.8873 71.5973 34.8873 70.2513C34.8873 68.9053 33.7961 67.814 32.45 67.814Z" fill="#F0B040"/>
<path d="M32.45 58.0508H28.5501C27.2039 58.0508 26.1128 59.1421 26.1128 60.4881C26.1128 61.8343 27.2041 62.9254 28.5501 62.9254H32.45C33.7961 62.9254 34.8873 61.8341 34.8873 60.4881C34.8874 59.1421 33.7961 58.0508 32.45 58.0508Z" fill="#F0B040"/>
<path d="M30.4998 42.648C35.088 42.648 38.8207 38.9153 38.8207 34.3271V34.0359C38.8207 32.6898 37.7294 31.5986 36.3834 31.5986C35.0372 31.5986 33.9461 32.69 33.9461 34.0359V34.3271C33.9461 36.2273 32.4002 37.7732 30.5 37.7732C28.5997 37.7732 27.0538 36.2273 27.0538 34.3271V34.0359C27.0538 32.6898 25.9625 31.5986 24.6165 31.5986C23.2705 31.5986 22.1792 32.69 22.1792 34.0359V34.3271C22.1789 38.9154 25.9116 42.648 30.4998 42.648Z" fill="#F0B040"/>
</svg>
