<svg width="24" height="25" viewBox="0 0 24 25" fill="none" xmlns="http://www.w3.org/2000/svg">
<g opacity="0.4">
<mask id="mask0_271_30654" style="mask-type:alpha" maskUnits="userSpaceOnUse" x="2" y="2" width="20" height="21">
<path fill-rule="evenodd" clip-rule="evenodd" d="M20 2.70508H8C6.9 2.70508 6 3.60508 6 4.70508V16.7051C6 17.8051 6.9 18.7051 8 18.7051H20C21.1 18.7051 22 17.8051 22 16.7051V4.70508C22 3.60508 21.1 2.70508 20 2.70508ZM17 20.7051H5C4.45 20.7051 4 20.2551 4 19.7051V7.70508C4 7.15508 3.55 6.70508 3 6.70508C2.45 6.70508 2 7.15508 2 7.70508V20.7051C2 21.8051 2.9 22.7051 4 22.7051H17C17.55 22.7051 18 22.2551 18 21.7051C18 21.1551 17.55 20.7051 17 20.7051ZM17.5 11.2051L20 12.7051V4.70508H15V12.7051L17.5 11.2051Z" fill="black"/>
</mask>
<g mask="url(#mask0_271_30654)">
<rect y="0.705078" width="24" height="24" fill="white"/>
</g>
</g>
</svg>
