<svg width="24" height="25" viewBox="0 0 24 25" fill="none" xmlns="http://www.w3.org/2000/svg">
<g opacity="0.4">
<mask id="mask0_271_30641" style="mask-type:alpha" maskUnits="userSpaceOnUse" x="2" y="1" width="20" height="23">
<path fill-rule="evenodd" clip-rule="evenodd" d="M19 3.70508H20C21.1 3.70508 22 4.60508 22 5.70508V21.7051C22 22.8051 21.1 23.7051 20 23.7051H4C2.9 23.7051 2 22.8051 2 21.7051V5.70508C2 4.60508 2.9 3.70508 4 3.70508H5V2.70508C5 2.15508 5.45 1.70508 6 1.70508C6.55 1.70508 7 2.15508 7 2.70508V3.70508H17V2.70508C17 2.15508 17.45 1.70508 18 1.70508C18.55 1.70508 19 2.15508 19 2.70508V3.70508ZM5 21.7051H19C19.55 21.7051 20 21.2551 20 20.7051V8.70508H4V20.7051C4 21.2551 4.45 21.7051 5 21.7051Z" fill="black"/>
</mask>
<g mask="url(#mask0_271_30641)">
<rect y="0.705078" width="24" height="24" fill="white"/>
</g>
</g>
</svg>
