<svg xmlns="http://www.w3.org/2000/svg" width="22" height="22" viewBox="0 0 22 22" fill="none">
  <path d="M10.9998 13.5147C12.3901 13.5147 13.5171 12.3876 13.5171 10.9973C13.5171 9.60704 12.3901 8.47998 10.9998 8.47998C9.60948 8.47998 8.48242 9.60704 8.48242 10.9973C8.48242 12.3876 9.60948 13.5147 10.9998 13.5147Z" fill="#F0B040"/>
  <path d="M20.3988 10.7859C19.6586 8.87124 18.3736 7.21543 16.7026 6.02312C15.0316 4.83082 13.0478 4.15429 10.9965 4.07715C8.94515 4.15429 6.96139 4.83082 5.29038 6.02312C3.61936 7.21543 2.33434 8.87124 1.59413 10.7859C1.54414 10.9242 1.54414 11.0756 1.59413 11.2139C2.33434 13.1285 3.61936 14.7844 5.29038 15.9767C6.96139 17.169 8.94515 17.8455 10.9965 17.9226C13.0478 17.8455 15.0316 17.169 16.7026 15.9767C18.3736 14.7844 19.6586 13.1285 20.3988 11.2139C20.4488 11.0756 20.4488 10.9242 20.3988 10.7859ZM10.9965 15.0906C10.1874 15.0906 9.39651 14.8507 8.7238 14.4012C8.05109 13.9517 7.52677 13.3128 7.21715 12.5653C6.90754 11.8179 6.82653 10.9954 6.98437 10.2018C7.14221 9.40831 7.53181 8.67942 8.10391 8.10732C8.676 7.53523 9.4049 7.14562 10.1984 6.98778C10.9919 6.82994 11.8144 6.91095 12.5619 7.22057C13.3094 7.53018 13.9483 8.0545 14.3978 8.72721C14.8473 9.39993 15.0872 10.1908 15.0872 10.9999C15.0855 12.0843 14.654 13.1238 13.8872 13.8906C13.1204 14.6574 12.0809 15.0889 10.9965 15.0906Z" fill="#F0B040"/>
</svg>